<?xml version="1.0" standalone="no"?><!DOCTYPE svg PUBLIC "-//W3C//DTD SVG 1.1//EN" "http://www.w3.org/Graphics/SVG/1.1/DTD/svg11.dtd"><svg class="icon" width="32px" height="32.00px" viewBox="0 0 1024 1024" version="1.1" xmlns="http://www.w3.org/2000/svg"><path fill="#2c2c2c" d="M511.820921 15.46932c-281.242406 0-509.265726 228.02332-509.265726 509.265726 0 225.032196 145.905044 415.878802 348.274078 483.229746 25.462928 4.710278 34.821063-11.076266 34.821063-24.508183 0-12.158924-0.509606-52.263317-0.699941-94.786807-141.703349 30.810726-171.559331-60.093657-171.559331-60.093657-23.171746-58.884109-56.528458-74.543763-56.528458-74.543763-46.215578-31.638581 3.500731-30.937616 3.500731-30.937616 51.117215 3.565199 78.044494 52.454676 78.044494 52.454676 45.452191 77.854159 119.1681 55.31891 148.196227 42.333154 4.583388-32.911574 17.760502-55.382355 32.338522-68.11433-113.12036-12.858866-232.033657-56.528458-232.033657-251.704672 0-55.573713 19.924795-101.025904 52.454676-136.673799-5.28333-12.858866-22.725584-64.612577 4.901637-134.76431 0 0 42.778292-13.68672 140.112108 52.199872 40.614-11.267625 84.155678-16.932648 127.443577-17.124006 43.287899 0.191358 86.893023 5.856381 127.571491 17.124006 97.205902-65.886593 139.92075-52.199872 139.92075-52.199872 27.691689 70.151733 10.31288 121.968889 5.028527 134.76431 32.656771 35.648918 52.390207 81.100086 52.390207 136.673799 0 195.621353-119.1681 238.654448-232.543264 251.258511 18.270109 15.787568 34.56626 46.788629 34.56626 94.278223 0 68.11433-0.573051 122.988102-0.573051 139.729391 0 13.558807 9.166777 29.40982 35.012422 24.444738 202.242144-67.414389 347.95583-258.260995 347.95583-483.165278 0-281.242406-228.02332-509.265726-509.265726-509.265726L511.820921 15.46932z" /></svg>