<?xml version="1.0" standalone="no"?><!DOCTYPE svg PUBLIC "-//W3C//DTD SVG 1.1//EN" "http://www.w3.org/Graphics/SVG/1.1/DTD/svg11.dtd"><svg class="icon" width="32px" height="32.00px" viewBox="0 0 1024 1024" version="1.1" xmlns="http://www.w3.org/2000/svg"><path fill="#2c2c2c" d="M515.683902 64.88273c-247.77313 0-448.64609 200.798259-448.64609 448.571389 0 247.753687 200.87296 448.571389 448.64609 448.571389 247.716848 0 448.515107-200.836121 448.515107-448.571389C964.199009 265.680988 763.40075 64.88273 515.683902 64.88273L515.683902 64.88273zM740.025367 562.967812 501.793544 562.967812c-5.003967 0-9.82067-1.007957-14.301727-2.87549-13.124925-5.600555-22.422685-18.651802-22.422685-33.867342l0-238.194984c0-20.332071 16.485463-36.780695 36.724413-36.780695 20.36891 0 36.835953 16.448624 36.835953 36.780695l0 201.37745 201.39587 0c20.313651 0 36.799114 16.448624 36.799114 36.780695S760.339018 562.967812 740.025367 562.967812L740.025367 562.967812z" /></svg>