<?xml version="1.0" standalone="no"?><!DOCTYPE svg PUBLIC "-//W3C//DTD SVG 1.1//EN" "http://www.w3.org/Graphics/SVG/1.1/DTD/svg11.dtd"><svg class="icon" width="32px" height="32.00px" viewBox="0 0 1024 1024" version="1.1" xmlns="http://www.w3.org/2000/svg"><path fill="#2c2c2c" d="M516.3 981.931c-264.255 0-478.476-214.219-478.476-478.476s214.219-478.476 478.476-478.476c264.255 0 478.476 214.219 478.476 478.476s-214.219 478.476-478.476 478.476zM294.169 686.577c0 13.174 9.946 25.376 29.803 36.62s46.858 20.145 80.986 26.761c34.11 6.561 71.242 9.826 111.349 9.826 40.105 0 77.222-3.296 111.33-9.86 34.11-6.595 61.127-15.516 80.986-26.761 19.859-11.245 29.803-23.462 29.803-36.62v-48.636c-22.933 16.031-54.29 28.125-94.005 36.33s-82.417 12.303-128.109 12.303c-45.711 0-88.399-4.099-128.144-12.303-39.714-8.203-71.035-20.283-93.969-36.297v48.636zM738.416 320.37c0-13.174-9.946-25.376-29.803-36.62s-46.873-20.145-80.986-26.761c-34.11-6.561-71.242-9.86-111.33-9.86-40.105 0-77.243 3.296-111.364 9.86-34.11 6.595-61.127 15.516-80.986 26.761-19.859 11.245-29.803 23.462-29.803 36.62v36.62c0 13.174 9.946 25.376 29.803 36.62 19.859 11.282 46.873 20.183 80.986 26.761 34.14 6.561 71.26 9.844 111.364 9.844 40.105 0 77.222-3.296 111.33-9.86 34.11-6.561 61.127-15.499 80.986-26.761 19.859-11.245 29.803-23.444 29.803-36.62v-36.604zM738.416 418.205c-22.933 16.031-54.29 28.125-94.005 36.33s-82.417 12.303-128.109 12.303c-45.711 0-88.399-4.099-128.144-12.303-39.714-8.171-71.035-20.317-93.969-36.33v48.636c0 13.174 9.946 25.376 29.803 36.62 19.859 11.245 46.858 20.145 80.986 26.761 34.11 6.561 71.242 9.86 111.349 9.86 40.105 0 77.222-3.296 111.33-9.86 34.11-6.561 61.127-15.499 80.986-26.761 19.859-11.245 29.803-23.462 29.803-36.62v-48.636zM738.446 528.064c-22.933 16.031-54.29 28.125-94.005 36.33-39.747 8.203-82.432 12.303-128.144 12.303-45.711 0-88.399-4.099-128.144-12.303-39.714-8.203-71.035-20.317-93.969-36.33v48.636c0 13.174 9.946 25.376 29.803 36.62 19.859 11.245 46.858 20.167 80.986 26.761 34.14 6.561 71.273 9.86 111.364 9.86 40.091 0 77.222-3.296 111.33-9.86 34.11-6.561 61.127-15.516 80.986-26.761 19.859-11.245 29.803-23.444 29.803-36.62v-48.636z" /></svg>